<svg id="Capa_1" enable-background="new 0 0 512 512" height="512" viewBox="0 0 512 512" width="512" xmlns="http://www.w3.org/2000/svg"><g><g><g><path d="m322.698 332.046h-189.986c-7.732 0-14-6.268-14-14v-304.046c0-7.732 6.268-14 14-14h189.986c7.732 0 14 6.268 14 14v304.046c0 7.732-6.268 14-14 14z" fill="#bed8fb"/></g><g><path d="m322.717 0h-36.362v267.722c0 7.721-6.259 13.981-13.981 13.981h-153.662v36.362c0 7.721 6.26 13.981 13.981 13.981h190.024c7.721 0 13.981-6.259 13.981-13.981v-304.084c0-7.721-6.26-13.981-13.981-13.981z" fill="#9dc6fb"/></g><path d="m298.983 24.898h-142.555c-6.332 0-11.484 5.152-11.484 11.484v101.639c0 6.332 5.152 11.484 11.484 11.484h142.555c6.332 0 11.484-5.152 11.484-11.484v-101.639c0-6.332-5.152-11.484-11.484-11.484zm-139.06 22.209 55.059 40.095-55.059 40.095zm15.517-7.23h104.53l-52.265 38.06zm52.265 56.59 52.263 38.058h-104.526zm12.723-9.265 55.06-40.095v80.189z" fill="#80b4fb"/><g><path d="m454.228 31.888h-80.216c-4.137 0-7.49-3.353-7.49-7.49s3.353-7.49 7.49-7.49h80.216c4.137 0 7.49 3.353 7.49 7.49s-3.353 7.49-7.49 7.49z" fill="#80b4fb"/></g><g><path d="m402.581 63.433h-28.568c-4.137 0-7.49-3.353-7.49-7.49s3.353-7.49 7.49-7.49h28.568c4.137 0 7.49 3.353 7.49 7.49s-3.353 7.49-7.49 7.49z" fill="#80b4fb"/></g><g><g><path d="m38.654 196.443c-2.098 0-4.184-.876-5.665-2.586l-17.291-19.966c-2.437-2.815-2.437-6.992.001-9.807l17.291-19.965c2.707-3.126 7.437-3.468 10.565-.758 3.127 2.707 3.466 7.438.758 10.565l-13.044 15.061 13.045 15.062c2.707 3.128 2.368 7.857-.759 10.566-1.418 1.226-3.163 1.828-4.901 1.828z" fill="#80b4fb"/></g><g><path d="m70.477 196.443c-1.738 0-3.484-.601-4.901-1.828-3.127-2.708-3.466-7.438-.759-10.566l13.045-15.062-13.044-15.061c-2.708-3.127-2.369-7.857.758-10.565s7.857-2.37 10.565.758l17.291 19.965c2.438 2.815 2.438 6.992.001 9.807l-17.291 19.966c-1.482 1.709-3.568 2.586-5.665 2.586z" fill="#80b4fb"/></g></g><g><path d="m166.603 229.147h-106.418c-4.137 0-7.49-3.353-7.49-7.49s3.353-7.49 7.49-7.49h106.418c4.137 0 7.49 3.353 7.49 7.49s-3.353 7.49-7.49 7.49z" fill="#80b4fb"/></g><g><path d="m166.603 260.066h-106.418c-4.137 0-7.49-3.353-7.49-7.49s3.353-7.49 7.49-7.49h106.418c4.137 0 7.49 3.353 7.49 7.49s-3.353 7.49-7.49 7.49z" fill="#80b4fb"/></g><g><path d="m232.808 229.147h-37.433c-4.137 0-7.49-3.353-7.49-7.49s3.353-7.49 7.49-7.49h37.433c4.137 0 7.49 3.353 7.49 7.49-.001 4.137-3.353 7.49-7.49 7.49z" fill="#80b4fb"/></g></g><g><g><g><g><g><path d="m285.846 419.143-5.702 16.294v56.036c0 11.336 9.19 20.527 20.527 20.527h176.933c11.337 0 20.527-9.19 20.527-20.527v-56.036l-5.702-16.294z" fill="#407093"/></g></g><g><g><path d="m492.428 188.066 5.702-21.989v-39.089c0-11.336-9.19-20.527-20.527-20.527h-176.932c-11.337 0-20.527 9.19-20.527 20.527v39.089l5.702 21.989z" fill="#407093"/></g></g></g><g><g><path d="m477.603 106.462h-23.375v81.605h38.2l5.702-21.989v-39.089c0-11.337-9.19-20.527-20.527-20.527z" fill="#365e7d"/></g></g><g><g><path d="m454.228 419.143v28.416c0 11.336-9.19 20.527-20.527 20.527h-153.557v23.388c0 11.336 9.19 20.527 20.527 20.527h176.933c11.337 0 20.527-9.19 20.527-20.527v-56.037l-5.702-16.294z" fill="#365e7d"/></g></g><g><g><circle cx="389.137" cy="475.491" fill="#f1f1f4" r="13.444"/></g></g><g><g><path d="m280.144 166.566h217.986v269.36h-217.986z" fill="#ddeafb"/></g></g><g><g><path d="m454.228 166.566h43.902v269.36h-43.902z" fill="#bed8fb"/></g></g></g><g><path d="m447.756 368.987c-8.599 0-13.184-3.927-16.532-6.794-2.559-2.191-3.727-3.192-6.789-3.192s-4.229 1.001-6.788 3.192c-3.348 2.867-7.934 6.794-16.533 6.794-8.598 0-13.183-3.927-16.53-6.794-2.559-2.191-3.726-3.192-6.787-3.192-3.059 0-4.228 1.001-6.786 3.192-3.347 2.867-7.932 6.794-16.53 6.794-8.599 0-13.184-3.927-16.531-6.794-2.558-2.191-3.726-3.192-6.786-3.192-4.137 0-7.49-3.353-7.49-7.49s3.353-7.49 7.49-7.49c8.598 0 13.183 3.927 16.53 6.794 2.559 2.191 3.726 3.192 6.787 3.192 3.059 0 4.228-1.001 6.786-3.192 3.347-2.867 7.932-6.794 16.53-6.794s13.184 3.927 16.531 6.794c2.558 2.191 3.726 3.192 6.786 3.192 3.061 0 4.23-1.001 6.789-3.192 3.348-2.867 7.934-6.794 16.532-6.794 8.6 0 13.185 3.927 16.533 6.794 2.559 2.191 3.726 3.192 6.788 3.192 4.137 0 7.49 3.353 7.49 7.49s-3.353 7.49-7.49 7.49z" fill="#407093"/></g><g><path d="m401.115 401.712c-8.598 0-13.183-3.927-16.53-6.794-2.559-2.191-3.726-3.192-6.787-3.192-3.059 0-4.228 1.001-6.786 3.192-3.347 2.867-7.932 6.794-16.53 6.794-8.599 0-13.184-3.927-16.531-6.794-2.558-2.191-3.726-3.192-6.786-3.192-4.137 0-7.49-3.353-7.49-7.49s3.353-7.49 7.49-7.49c8.598 0 13.183 3.927 16.53 6.794 2.559 2.191 3.726 3.192 6.787 3.192 3.059 0 4.228-1.001 6.786-3.192 3.347-2.867 7.932-6.794 16.53-6.794s13.184 3.927 16.531 6.794c2.558 2.191 3.726 3.192 6.786 3.192 4.137 0 7.49 3.353 7.49 7.49s-3.353 7.49-7.49 7.49z" fill="#407093"/></g><g><path d="m358.594 228.077-46.327 4.901c-3.494.37-4.843 4.745-2.164 7.018l18.662 15.837-18.662 15.837c-2.679 2.273-1.329 6.648 2.164 7.018l46.327 4.901-14.195-27.756z" fill="#dd636e"/></g><g><circle cx="394.263" cy="259.478" fill="#ffd064" r="55.454"/></g><g><circle cx="378.748" cy="252.963" fill="#453e43" r="11.374"/></g></g></g></svg>